<svg xmlns="http://www.w3.org/2000/svg" width="36" height="36" viewBox="0 0 36 36"><g transform="translate(0 -1016.362)"><g fill="#34485c" font-family="sans-serif" font-size="47.202" font-weight="400" letter-spacing="0" transform="translate(308.994 -1289)" word-spacing="0"><path fill="#25b39e" d="m -295.99355,2311.3623 c -1.385,0 -2.5,1.115 -2.5,2.5 l 0,1.3613 0,10.2676 0,1.3399 0,4.6289 0,1.4023 c 0,1.2139 -0.85593,2.219 -2,2.4492 0.1613,0.032 0.32886,0.051 0.5,0.051 1.385,0 2.5,-1.115 2.5,-2.5 l 0,-1.4023 2.69141,-17.0977 5.26953,0 0.0391,-2.1543 0,-0.6738 c -0.31406,-0.1046 -0.64699,-0.1719 -1,-0.1719 l -5.5,0 z" color="#000" overflow="visible" style="isolation:auto;mix-blend-mode:normal"/><path fill="#cad1d8" style="isolation:auto;mix-blend-mode:normal" d="m -297.49355,2331.459 0,1.4033 c 0,1.385 -1.115,2.5 -2.5,2.5 -1.385,0 -2.5,-1.115 -2.5,-2.5 l 0,-14.9064 -5e-5,-2.8237 0,-4.9437 c 0,-1.5657 -1.338,-2.8261 -3,-2.8261 l 0.14062,-1e-4 12.85937,0 c 1.662,0 3,1.2604 3,2.8261 l 0,2.0201 -0.039,2.1539 -5.26953,0" color="#000" overflow="visible"/><path fill="#000" d="m -295.99355,2311.3623 c -1.385,0 -2.5,1.115 -2.5,2.5 l 0,1.3613 0,10.2676 0,1.3399 0,4.6289 0,1.4023 c 0,1.2139 -0.8559,2.2191 -2,2.4492 0.009,0 0.0185,0 0.0273,0 0.15304,0.029 0.31092,0.047 0.47266,0.047 0.17313,0 0.34282,-0.018 0.50586,-0.051 0.16304,-0.033 0.3191,-0.081 0.46875,-0.1445 0.89793,-0.3786 1.52543,-1.266 1.52543,-2.3048 l 0,-1.4023 0,-4.6289 0,-1.3399 0,-9.2676 0,-1.3613 c 0,-1.385 1.115,-2.5 2.5,-2.5 l 5.49805,0 0.002,-0.1543 0,-0.6738 c -0.31406,-0.1046 -0.64699,-0.1719 -1,-0.1719 l -5.5,0 z" color="#000" opacity=".15" overflow="visible" style="isolation:auto;mix-blend-mode:normal"/><path fill="#576d7e" style="isolation:auto;mix-blend-mode:normal" d="m -292.49355,2335.3623 0,-20.5002 c -0.0293,-1.0693 -0.5,-2.4998 -2.5,-2.4998 -1.385,0 -2.5,1.115 -2.5,2.5 l 0,1.3622 0,9.266 0,1.3401 0,4.6284 0,1.4033 c 0,1.385 -1.115,2.5 -2.5,2.5" color="#000" overflow="visible"/><path fill="#78c8f0" d="m -298.9221,2316.8623 21.8571,0 c 0.59358,0 1.07145,0.4778 1.07145,1.0714 l 0,12.8572 c 0,0.5935 -0.47787,1.0714 -1.07145,1.0714 l -21.8571,0 c -0.59358,0 -1.07145,-0.4779 -1.07145,-1.0714 l 0,-12.8572 c 0,-0.5936 0.47787,-1.0714 1.07145,-1.0714 z"/><path d="m -299.99355,2318.8623 0,3 24,0 0,-3 -24,0 z"/><path fill="#cad1d8" d="m -294.99355,2328.8623 -3,0 0,1 3,0 0,-1 z"/><path fill="#f8b84e" d="m -280.39357,2325.8623 a 2.0000086,2.0000086 0 0 1 -2,2 2.0000086,2.0000086 0 0 1 -2.00001,-2 2.0000086,2.0000086 0 0 1 2.00001,-2 2.0000086,2.0000086 0 0 1 2,2 z"/><path fill="#cad1d8" d="M-290.99355 2328.8623l-3 0 0 1 3 0 0-1zM-286.99355 2328.8623l-3 0 0 1 3 0 0-1zM-282.99355 2328.8623l-3 0 0 1 3 0 0-1zM-286.99355 2324.8623l-11 0 0 2 11 0 0-2z"/><path fill="#f05542" d="m -277.99354,2325.8623 a 2.0000086,2.0000086 0 0 1 -2.00001,2 2.0000086,2.0000086 0 0 1 -2.00001,-2 2.0000086,2.0000086 0 0 1 2.00001,-2 2.0000086,2.0000086 0 0 1 2.00001,2 z"/><path fill="#999" d="m -297.49355,2332.8623 0,-1.3401" color="#000" overflow="visible" style="isolation:auto;mix-blend-mode:normal"/><path fill="#cad1d8" d="m -297.49355,2332.8623 0,-1.3401 m 0,-15.2977 0,-1.3622 c 0,-1.385 1.115,-2.5 2.5,-2.5 2,0 2.47072,1.4305 2.5,2.4998 l 0,3.8847 1.2e-4,3.804 0,15.8115 0.007,0 5.99288,0 0,0 0,-23.1738 c 0,-1.5657 -1.338,-2.8261 -3,-2.8261 l -5.5,-1e-4 c -1.385,0 -2.5,1.115 -2.5,2.5 l 0,1.3622" color="#000" overflow="visible" style="isolation:auto;mix-blend-mode:normal"/><path fill="#576d7e" fill-rule="evenodd" d="M-290.99414 2316.3613l0 1 2 0 0-1-2 0zM-290.99414 2318.3613l0 1 3 0 0-1-3 0zM-290.99414 2320.3613l0 1 2 0 0-1-2 0zM-290.99414 2322.3613l0 1 1 0 0-1-1 0zM-290.99414 2324.3613l0 1 3 0 0-1-3 0zM-290.99414 2326.3613l0 1 2 0 0-1-2 0z" color="#000" font-size="medium" overflow="visible" white-space="normal" style="line-height:125%;text-indent:0;text-align:start;text-decoration-line:none;text-decoration-style:solid;text-decoration-color:#000;text-transform:none;block-progression:tb;isolation:auto;mix-blend-mode:normal"/><path fill="#e9eded" style="line-height:125%;text-indent:0;text-align:start;text-decoration-line:none;text-decoration-style:solid;text-decoration-color:#000;text-transform:none;block-progression:tb;isolation:auto;mix-blend-mode:normal" d="m 0.5,3.5 a 1.0001,1.0001 0 0 0 0,2 c 1.1564,0 2,0.8301719 2,1.8261719 l 0,4.9433591 0,2.824219 L 2.5,30 c 0,1.6839 1.2013544,3.107487 2.8027344,3.429688 C 5.5239644,33.473687 5.75747,33.5 6,33.5 l 6.5,0 0,2 a 1.0001,1.0001 0 0 0 1,1 l 0.0078,0 5.992188,0 a 1.0001,1.0001 0 0 0 1,-1 l 0,-5.5 8.427734,0 C 30.059034,30 31,29.058934 31,27.927734 L 31,19 31,16 31,15.072266 C 31,13.941066 30.058924,13 28.927734,13 L 20.5,13 l 0,-0.673828 c 0,-1.7885 -1.30883,-3.2003126 -3,-3.6328126 l 0,-0.021484 0,-1.3417969 c 0,-2.1354 -1.8324,-3.8261719 -4,-3.8261719 l -12.859375,0 -0.140625,0 L 0.5,3.5 Z m 0,1 0.140625,0 L 13.5,4.5 c 1.662,0 3,1.2604719 3,2.8261719 l 0,1.3417969 0,0.00391 0,0.6699219 0,0.00391 0,0.00977 -0.002,0.1445312 0.002,0 c 1.662,0 3,1.2604721 3,2.8261721 L 19.5,14 28.927734,14 C 29.521314,14 30,14.478666 30,15.072266 L 30,16 l 0,3 0,8.927734 C 30,28.521234 29.521314,29 28.927734,29 L 19.5,29 l 0,6.5 -5.992188,0 -0.0078,0 0,-3 -7.5,0 C 5.8288603,32.5 5.6613003,32.481674 5.5,32.449219 4.3559283,32.219022 3.5,31.21386 3.5,30 l 0,-14.90625 0,-2.824219 0,-4.9433591 C 3.5,5.7604719 2.162,4.5 0.5,4.5 Z" color="#000" font-size="medium" overflow="visible" transform="translate(-305.994 2302.862)" white-space="normal"/></g></g></svg>