<svg xmlns="http://www.w3.org/2000/svg" width="56" height="56" viewBox="0 0 36 36">
    <g transform="translate(0 -1016.362)">
        <g fill="#34485c" font-family="sans-serif" font-size="47.202" font-weight="400" letter-spacing="0"
            transform="translate(307.994 -1287.486)" word-spacing="0">
            <path
                d="m -302.4957,2311.8623 24.00427,0 c 0.27581,0 0.49786,0.2213 0.49786,0.4961 l 0,16.0078 c 0,0.2748 -0.22205,0.4961 -0.49786,0.4961 l -24.00427,0 c -0.27581,0 -0.49786,-0.2213 -0.49786,-0.4961 l 0,-16.0078 c 0,-0.2748 0.22205,-0.4961 0.49786,-0.4961 z" />
            <path fill="#cad1d8" fill-rule="evenodd" d="m -292.99355,2328.6384 5,0 0,3.2236 -5,0 z" />
            <path fill="#2b4255"
                d="m -295.79355,2331.862 c -0.11081,0 -0.19986,0.09 -0.19986,0.2002 l 0,0.2534 0,0.3466 0,0.1998 0.19986,0 10.59997,0 0.19985,0 0,-0.1998 0,-0.3466 0,-0.2534 c 0,-0.1106 -0.089,-0.2002 -0.19985,-0.2002 l -10.59997,0 z" />
            <path fill="#4bbfeb" d="m -301.99356,2312.8623 23,0 0,12 -23,0 z" />
            <path fill="#2b4255"
                d="m -302.99355,2325.8398 0,2.5244 c 0,0.2758 0.22198,0.4978 0.4978,0.4978 l 24.00434,0 c 0.27582,0 0.4978,-0.222 0.4978,-0.4978 l 0,-2.48 -24.70054,-0.044 z" />
            <path fill="#fcd062"
                d="m -284.99815,2318.8623 a 4.9999871,4.9999871 0 0 1 -4.99999,5 4.9999871,4.9999871 0 0 1 -4.99999,-5 4.9999871,4.9999871 0 0 1 4.99999,-5 4.9999871,4.9999871 0 0 1 4.99999,5 z"
                color="#000" overflow="visible" style="isolation:auto;mix-blend-mode:normal" />
            <path fill="#2b4255"
                d="m -295.98828,2313.8711 0,1 0.5,0 0.70117,0 0.5,0 0,-1 -0.5,0 -0.70117,0 -0.5,0 z m 1.72656,0.9902 0,1 0.5,0 6.57422,0 -0.97266,3 -4.80468,0 -0.5,0 0,1 0.5,0 5.16796,0 a 0.50005,0.50005 0 0 0 0.47657,-0.3457 l 1.29687,-4 a 0.50005,0.50005 0 0 0 -0.47461,-0.6543 l -7.26367,0 -0.5,0 z"
                color="#000" font-size="medium" overflow="visible" white-space="normal"
                style="line-height:125%;text-indent:0;text-align:start;text-decoration-line:none;text-decoration-style:solid;text-decoration-color:#000;text-transform:none;block-progression:tb;isolation:auto;mix-blend-mode:normal" />
            <path fill="#2b4255"
                d="m -294.35547,2313.8652 a 0.50005,0.50005 0 0 0 -0.45898,0.6231 l 1.67968,6.9961 a 0.50005,0.50005 0 0 0 0.48633,0.3828 l 4.15625,0 a 0.50005,0.50005 0 1 0 0,-1 l -3.76172,0 -1.58789,-6.6133 a 0.50005,0.50005 0 0 0 -0.51367,-0.3887 z"
                color="#000" font-size="medium" overflow="visible" white-space="normal"
                style="line-height:125%;text-indent:0;text-align:start;text-decoration-line:none;text-decoration-style:solid;text-decoration-color:#000;text-transform:none;block-progression:tb;isolation:auto;mix-blend-mode:normal" />
            <path fill="#2b4255"
                d="M-292.53125 2320.8633c-.82209 0-1.50002.6779-1.5 1.5-.00002.8221.67791 1.498 1.5 1.498.82209 0 1.49807-.6759 1.49805-1.498.00002-.8221-.67596-1.5-1.49805-1.5zm0 1c.28137 0 .49805.2181.49805.5 0 .2819-.21668.498-.49805.498-.28138 0-.50001-.2161-.5-.498-.00001-.2819.21862-.5.5-.5zM-288.57617 2320.8633c-.82209 0-1.49807.6779-1.49805 1.5-.00002.8221.67596 1.498 1.49805 1.498.82209 0 1.50002-.6759 1.5-1.498.00002-.8221-.67791-1.5-1.5-1.5zm0 1c.28137 0 .5.2181.5.5 0 .2819-.21863.498-.5.498-.28138 0-.49805-.2161-.49805-.498 0-.2819.21667-.5.49805-.5z"
                color="#000" font-size="medium" overflow="visible" white-space="normal"
                style="line-height:125%;text-indent:0;text-align:start;text-decoration-line:none;text-decoration-style:solid;text-decoration-color:#000;text-transform:none;block-progression:tb;isolation:auto;mix-blend-mode:normal" />
            <path fill="#2b4255" fill-rule="evenodd" d="m -290.63477,2316.8613 0,1 3.59766,0 0,-1 -3.59766,0 z"
                color="#000" font-size="medium" overflow="visible" white-space="normal"
                style="line-height:125%;text-indent:0;text-align:start;text-decoration-line:none;text-decoration-style:solid;text-decoration-color:#000;text-transform:none;block-progression:tb;isolation:auto;mix-blend-mode:normal" />
            <path fill="#2b4255"
                d="m -302.99355,2325.8398 0,2.5244 c 0,0.2758 0.22198,0.4978 0.4978,0.4978 l 24.00434,0 c 0.27582,0 0.4978,-0.222 0.4978,-0.4978 l 0,-2.48 -24.70054,-0.044 z" />
            <path fill="#2b4255"
                style="line-height:125%;text-indent:0;text-align:start;text-decoration-line:none;text-decoration-style:solid;text-decoration-color:#000;text-transform:none;block-progression:tb;isolation:auto;mix-blend-mode:normal"
                d="m -295.98828,2313.8711 0,1 0.5,0 0.70117,0 0.5,0 0,-1 -0.5,0 -0.70117,0 -0.5,0 z m 1.72656,0.9902 0,1 0.5,0 6.57422,0 -0.97266,3 -4.80468,0 -0.5,0 0,1 0.5,0 5.16796,0 a 0.50005,0.50005 0 0 0 0.47657,-0.3457 l 1.29687,-4 a 0.50005,0.50005 0 0 0 -0.47461,-0.6543 l -7.26367,0 -0.5,0 z"
                color="#000" font-size="medium" overflow="visible" white-space="normal" />
            <path fill="#2b4255"
                style="line-height:125%;text-indent:0;text-align:start;text-decoration-line:none;text-decoration-style:solid;text-decoration-color:#000;text-transform:none;block-progression:tb;isolation:auto;mix-blend-mode:normal"
                d="m -294.35547,2313.8652 a 0.50005,0.50005 0 0 0 -0.45898,0.6231 l 1.67968,6.9961 a 0.50005,0.50005 0 0 0 0.48633,0.3828 l 4.15625,0 a 0.50005,0.50005 0 1 0 0,-1 l -3.76172,0 -1.58789,-6.6133 a 0.50005,0.50005 0 0 0 -0.51367,-0.3887 z"
                color="#000" font-size="medium" overflow="visible" white-space="normal" />
            <path fill="#2b4255"
                style="line-height:125%;text-indent:0;text-align:start;text-decoration-line:none;text-decoration-style:solid;text-decoration-color:#000;text-transform:none;block-progression:tb;isolation:auto;mix-blend-mode:normal"
                d="M-292.53125 2320.8633c-.82209 0-1.50002.6779-1.5 1.5-.00002.8221.67791 1.498 1.5 1.498.82209 0 1.49807-.6759 1.49805-1.498.00002-.8221-.67596-1.5-1.49805-1.5zm0 1c.28137 0 .49805.2181.49805.5 0 .2819-.21668.498-.49805.498-.28138 0-.50001-.2161-.5-.498-.00001-.2819.21862-.5.5-.5zM-288.57617 2320.8633c-.82209 0-1.49807.6779-1.49805 1.5-.00002.8221.67596 1.498 1.49805 1.498.82209 0 1.50002-.6759 1.5-1.498.00002-.8221-.67791-1.5-1.5-1.5zm0 1c.28137 0 .5.2181.5.5 0 .2819-.21863.498-.5.498-.28138 0-.49805-.2161-.49805-.498 0-.2819.21667-.5.49805-.5z"
                color="#000" font-size="medium" overflow="visible" white-space="normal" />
            <path fill="#2b4255" fill-rule="evenodd"
                style="line-height:125%;text-indent:0;text-align:start;text-decoration-line:none;text-decoration-style:solid;text-decoration-color:#000;text-transform:none;block-progression:tb;isolation:auto;mix-blend-mode:normal"
                d="m -290.63477,2316.8613 0,1 3.59766,0 0,-1 -3.59766,0 z" color="#000" font-size="medium"
                overflow="visible" white-space="normal" />
            <path fill="#e9eded"
                style="line-height:125%;text-indent:0;text-align:start;text-decoration-line:none;text-decoration-style:solid;text-decoration-color:#000;text-transform:none;block-progression:tb;isolation:auto;mix-blend-mode:normal"
                d="m 3.4980469,7.9863281 0,0.013672 C 2.6873369,8 2,8.6820938 2,9.4960938 l 0,13.4804682 0,2.525391 c 7.7e-4,0.1963 0.043201,0.388947 0.1132812,0.560547 0.002,0 0.00191,0.0097 0.00391,0.01367 a 1.0001,1.0001 0 0 0 0.00195,0 c 0.0748,0.1758 0.1834163,0.337203 0.3164063,0.470703 0,0 0.00195,0 0.00195,0 0.12873,0.1287 0.2911825,0.244166 0.4765625,0.322266 0.18388,0.077 0.3802444,0.117187 0.5839844,0.117187 l 8.5019526,0 0,1 -1.800781,0 C 9.5528387,27.986328 9,28.540547 9,29.185547 l 0,0.253906 0,0.347656 0,0.199219 a 1.0001,1.0001 0 0 0 1,1 l 0.199219,0 10.601562,0 0.199219,0 a 1.0001,1.0001 0 0 0 1,-1 l 0,-0.199219 0,-0.347656 0,-0.253906 c 0,-0.6432 -0.555399,-1.199219 -1.199219,-1.199219 l -1.800781,0 0,-1 8.501953,0 c 0.20308,0 0.403818,-0.04299 0.580078,-0.117187 0.18643,-0.078 0.349316,-0.192866 0.478516,-0.322266 C 28.826487,26.280975 29,25.899381 29,25.488281 l 0,-2.480469 0,-13.5253901 c 0,-0.814 -0.687337,-1.4960938 -1.498047,-1.4960938 l -24.0039061,0 z M 3.4980469,9 27.501953,9 C 27.777763,9 28,9.2212937 28,9.4960938 l 0,13.5253902 0,2.480469 c 0,0.1379 -0.05651,0.261588 -0.146484,0.351563 -0.04523,0.04536 -0.0981,0.08217 -0.158204,0.107422 C 27.635716,25.986059 27.570908,26 27.501953,26 L 18,26 l 0,3 2.800781,0 C 20.911631,29 21,29.088619 21,29.199219 l 0,0.253906 0,0.347656 L 21,30 20.800781,30 10.199219,30 10,30 l 0,-0.199219 0,-0.347656 0,-0.253906 C 10,29.089019 10.088409,29 10.199219,29 L 13,29 13,26 3.4980469,26 C 3.4290919,26 3.3623322,25.98606 3.3027344,25.96094 3.2426224,25.93569 3.1897615,25.89889 3.1445312,25.853518 c -0.044602,-0.0446 -0.080373,-0.09727 -0.1054687,-0.15625 0,0 0,-0.002 0,-0.002 C 3.014186,25.636294 3.0002664,25.572122 3,25.503906 l 0,-0.002 L 3,22.976562 3,9.4960938 C 3,9.2212936 3.2222369,9 3.4980469,9 Z"
                color="#000" font-size="medium" overflow="visible" transform="translate(-305.994 2302.862)"
                white-space="normal" />
        </g>
    </g>
</svg>