<svg xmlns="http://www.w3.org/2000/svg" width="56" height="56" viewBox="0 0 36 36">
    <g transform="translate(2.001 -1018.853)">
        <path fill="#4bbfeb" style="isolation:auto;mix-blend-mode:normal"
            d="m 4.00195,1048.3465 0,-17.3112 24,0 0,17.3112 0,0 -9.78564,0" color="#000" overflow="visible" />
        <path fill="#78c8f0" style="isolation:auto;mix-blend-mode:normal"
            d="m 3.99237,1046.8307 0,-15.6585 14.01916,0 0,15.6585" color="#000" overflow="visible" />
        <path fill="#34485c" style="isolation:auto;mix-blend-mode:normal"
            d="m 1.00195,1046.3622 16.99999,0 10e-6,0 0,3 -10e-6,0 -16.99999,0 0,0 0,-2.0625 z" color="#000"
            overflow="visible" />
        <path fill="#576d7e" style="isolation:auto;mix-blend-mode:normal"
            d="m 28.4806,1049.3621 -10.47275,0 0,0 0,-2 0,0 10.47275,0" color="#000" overflow="visible" />
        <path fill="#34485c"
            d="m 23.00195,1037.3622 c -1.662,0 -3,1.338 -3,3 l 0,2.5 0,1.5 0,3 3,0 3,0 0,-3 0,-1.5 0,-2.5 c 0,-1.662 -1.338,-3 -3,-3 z"
            color="#000" overflow="visible" style="isolation:auto;mix-blend-mode:normal" />
        <path fill="#e9eded" fill-rule="evenodd"
            d="M21.001953 1042.8613l0 2 1 0 0-2-1 0zM8.0546875 1033.6387l-2 4 .8945313.4472 2-4-.8945313-.4472zM10.054688 1035.6387l-2.5000005 5 .8945313.4472 2.5000002-5-.894531-.4472z"
            color="#000" font-family="sans-serif" font-weight="400" overflow="visible" white-space="normal"
            style="line-height:normal;text-indent:0;text-align:start;text-decoration-line:none;text-decoration-style:solid;text-decoration-color:#000;text-transform:none;block-progression:tb;isolation:auto;mix-blend-mode:normal" />
        <path fill="#f23f4e"
            d="m 6.4943445,1030.0588 a 2.752634,2.79214 0 0 1 -2.6711417,2.791 2.752634,2.79214 0 0 1 -2.82930122,-2.6257" />
        <path fill="#ff9142"
            d="m 10.336557,1030.3938 a 2.4121385,2.4684012 0 0 1 -2.3910481,2.4683 2.4121385,2.4684012 0 0 1 -2.4328596,-2.4251 l 2.4117696,-0.043 z" />
        <path fill="#f23f4e"
            d="M30.41635 1030.1061c-.00001.05.59243.1003.58984.1501-.0482.9263-.5404 1.7695-1.31472 2.2367-.81596.4923-1.82127.4923-2.63724 0-.81594-.4923-1.3186-1.4022-1.31862-2.3868l2.63724 0zM14.342864 1030.3832a2.3695562 2.4175224 0 0 1-1.157551 2.1392 2.3695562 2.4175224 0 0 1-2.395023.016 2.3695562 2.4175224 0 0 1-1.1856039-2.1232l2.3693859.029z" />
        <path fill="#ff9142"
            d="m 18.033015,1030.6484 a 2.2039936,2.2138236 0 0 1 -1.101997,1.9173 2.2039936,2.2138236 0 0 1 -2.203993,0 2.2039936,2.2138236 0 0 1 -1.101997,-1.9173" />
        <path fill="#f23f4e"
            d="m 21.993798,1030.5999 a 2.2523315,2.2623773 0 0 1 -1.126166,1.9592 2.2523315,2.2623773 0 0 1 -2.252331,0 2.2523315,2.2623773 0 0 1 -1.126166,-1.9592" />
        <path fill="#ff9142"
            d="m 26.009791,1030.6484 a 2.2039936,2.2138236 0 0 1 -1.101997,1.9173 2.2039936,2.2138236 0 0 1 -2.203993,0 2.2039936,2.2138236 0 0 1 -1.101997,-1.9173" />
        <path fill="none"
            d="M7.96046 1025.8622l6.48162 0-.46867 4.8358-8.79317 0M24.02725 1025.8622l-6.48163 0 .46868 4.8358 8.79307 0M5.9648483 1030.8011a2.5415115 2.5779874 0 0 1-2.7290966 1.8183 2.5415115 2.5779874 0 0 1-2.24185208-2.408" />
        <path fill="none"
            d="M10.336578 1030.3938a2.1916084 2.2427273 0 0 1-1.956747 2.2298 2.1916084 2.2427273 0 0 1-2.3761323-1.7519M30.992926 1030.4714a2.4481158 2.5584686 0 0 1-2.25694 2.2495 2.4481158 2.5584686 0 0 1-2.539357-1.8923" />
        <path fill="none"
            style="line-height:normal;-inkscape-font-specification:Sans;text-indent:0;text-align:start;text-decoration-line:none;text-transform:none;block-progression:tb;marker:none"
            d="m 8.23529,1030.701 20.68959,0 m -2.78022,-4.8359 -14.83825,0" color="#000" font-family="Sans"
            font-weight="400" overflow="visible" />
        <path fill="none"
            d="m 10.76612,1025.8622 -0.46877,4.8358 -8.79307,0 c -0.36261,0 -0.63387,-0.3598 -0.45261,-0.6046 l 2.78012,-4.0297 c 0.091,-0.1229 0.27058,-0.2029 0.45261,-0.2015 z" />
        <path fill="none"
            d="M7.19391 1025.8622l-1.03451 4.8358-4.65512 0c-.36261 0-.63387-.3598-.45261-.6046l2.78022-4.0297c.091-.1229.27048-.2029.45242-.2015l2.9095 0zM21.22148 1025.8622l.46877 4.8358 8.79317 0c.36252 0 .63387-.3598.45261-.6046l-2.78012-4.0297c-.091-.1229-.27058-.2029-.45271-.2015z" />
        <path fill="none"
            d="M24.79379 1025.8622l1.03452 4.8358 4.65511 0c.36261 0 .63387-.3598.45261-.6046l-2.78012-4.0297c-.091-.1229-.27058-.2029-.45261-.2015l-2.90951 0zM14.308583 1030.8337a2.153827 2.1974263 0 0 1-2.1768 1.8019 2.153827 2.1974263 0 0 1-2.07853-1.9188M21.897125 1030.6484a1.9791145 1.9879416 0 0 1-1.654567 1.9611 1.9791145 1.9879416 0 0 1-2.19722-1.3179M25.759811 1030.6484a1.9791145 1.9879416 0 0 1-1.654567 1.9611 1.9791145 1.9879416 0 0 1-2.197219-1.3179" />
        <path fill="none"
            d="m 18.03302,1030.6484 a 1.9791145,1.9879416 0 0 1 -1.853765,1.984 1.9791145,1.9879416 0 0 1 -2.088586,-1.7327" />
        <path fill="#f23f4e" d="m 26.14456,1023.8654 -14.83824,0 -3.07112,6.8356 20.68958,0 z" color="#000"
            font-family="Sans" font-weight="400" overflow="visible"
            style="line-height:normal;-inkscape-font-specification:Sans;text-indent:0;text-align:start;text-decoration-line:none;text-transform:none;block-progression:tb;marker:none" />
        <path fill="#ff5642" d="m 7.96036,1023.8625 6.48162,0 -0.46867,6.8355 -8.79307,0" />
        <path fill="#f23f4e"
            d="m 10.76603,1023.8625 -0.46877,6.8355 -8.79307,0 c -0.36262,0 -0.63387,-0.3598 -0.45262,-0.6046 l 2.78012,-6.0294 c 0.091,-0.1229 0.27058,-0.2029 0.45262,-0.2015 z" />
        <path fill="#ff5642"
            d="M7.19381 1023.8625l-1.03451 6.8355-4.65511 0c-.36262 0-.63387-.3598-.45262-.6046l2.78022-6.0294c.091-.1229.27048-.2029.45252-.2015zM24.02715 1023.8625l-6.48163 0 .46868 6.8355 8.79307 0" />
        <path fill="#f23f4e"
            d="m 21.22148,1023.8625 0.46877,6.8355 8.79307,0 c 0.36262,0 0.63387,-0.3598 0.45262,-0.6046 l -2.78013,-6.0294 c -0.091,-0.1229 -0.27058,-0.2029 -0.45261,-0.2015 z" />
        <path fill="#ff5642"
            d="m 24.80194,1023.8625 1.03451,6.8355 4.65512,0 c 0.36261,0 0.63387,-0.3598 0.45261,-0.6046 l -2.78012,-6.0294 c -0.091,-0.1229 -0.27058,-0.2029 -0.45261,-0.2015 z" />
        <path fill="#34485c" style="isolation:auto;mix-blend-mode:normal"
            d="m 28.00195,1046.3621 3,0 c 0,0 0,0 0,0 l 0,3 c 0,0 0,0 0,0 l -3,0 c 0,0 0,0 0,0 l 0,-3 c 0,0 0,0 0,0 z"
            color="#000" overflow="visible" />
        <path fill="#e9eded"
            style="line-height:normal;text-indent:0;text-align:start;text-decoration-line:none;text-decoration-style:solid;text-decoration-color:#000;text-transform:none;block-progression:tb;isolation:auto;mix-blend-mode:normal"
            d="m 4.2929688,6.4921875 0,0.00781 c -0.4788601,0 -0.920206,0.1415688 -1.2636719,0.6054688 -0.0412,0.055443 -0.076545,0.1150062 -0.1054688,0.1777343 L 0.14257812,13.3125 0.24804688,13.134766 c -0.0458762,0.062 -0.009642,0.04066 -0.0390625,0.09766 -0.10462276,0.132883 -0.17383748,0.290128 -0.20117188,0.457031 -0.00550555,0.03234 -0.00941653,0.06493 -0.01171875,0.09766 -0.00230551,0.03315 -0.00295736,0.06639 -0.00195313,0.09961 4.4469e-4,0.01173 0.00109584,0.02345 0.00195313,0.03516 3.7545e-4,0.01 0.00155126,0.01158 0.00195312,0.01758 0.002393794,0.079 0.0070924,0.09607 0.00976563,0.109375 8.2938e-4,0.01 0.0010749,0.01544 0.00195313,0.02344 6.02e-6,-3e-4 0.00212807,0.01272 0.00195312,0.01172 0.0043087,0.037 0.008253,0.07403 0.01367188,0.111328 l 0.0019531,0 c 0.0038663,0.026 0.0072792,0.05213 0.01171875,0.07813 0.24335788,1.5724 1.45725362,2.745906 2.95312502,3.066406 l 0,11.65039 -1.9902344,0 c -0.55226189,5.5e-5 -0.99994478,0.447738 -0.99999999,1 l 0,0.9375 0,2.0625 c 5.521e-5,0.552262 0.4477381,0.999945 0.99999999,1 l 16.9999999,0 0.0059,0 10.472657,0 2.521484,0 c 0.552262,-5.5e-5 0.999945,-0.447738 1,-1 l 0,-3 c -5.5e-5,-0.552262 -0.447738,-0.999945 -1,-1 l -2,0 0,-11.783203 c 0.409235,-0.07 0.828555,3.1e-5 1.205078,-0.230469 l 0.002,0 c 0.348781,-0.210399 0.615173,-0.46795 0.835938,-0.71875 0.52374,-0.5615 0.852549,-1.277568 0.941406,-2.042968 0.0062,-0.05707 0.0075,-0.114577 0.0039,-0.171875 0.0046,-0.037 0.0043,4.06e-4 0.0078,-0.05859 -0.01252,0.1938 -0.0059,0.178725 0.0059,-0.04687 l -0.02734,0 c -0.04882,-0.294262 -0.226431,-0.551376 -0.484374,-0.701172 0.03266,-0.044 -0.01182,0.02418 -0.0098,0.02149 0.0083,0.01 0.46638,0.672778 0.496094,0.705078 -0.03402,-0.082 -0.0047,-0.121132 -0.06836,-0.207032 l 0.07031,0.22461 -2.908202,-6.7050784 C 29.043342,7.2126625 29.007997,7.1530997 28.966797,7.0976562 28.62331,6.6337563 28.181993,6.4884875 27.703125,6.4921875 l -3.675781,0 -6.482422,0 c -0.02213,-7.351e-4 -0.04428,-7.351e-4 -0.06641,0 l -2.951172,0 c -0.02863,-0.00123 -0.0573,-0.00123 -0.08594,0 l -3.675781,0 -3.5722656,0 z M 4.2851562,7.5 l 2.9082032,0 3.5722656,0 3.675781,0 0,0.00391 3.103516,0 0,-0.00391 6.482422,0 3.675781,0 0.0078,0 c 0.182028,-0.0014 0.362124,0.078272 0.453124,0.2011719 l 2.779297,6.0292971 c 0.03639,0.04915 0.04209,0.105577 0.04492,0.160156 9.44e-4,0.0015 0.01765,0.0024 0.01758,0.0039 0.776238,-0.249683 0.293898,-0.294455 0,0 -6.28e-4,0.01207 -0.0051,0.02312 -0.0059,0.03516 -0.004,0.0616 -0.02335,0.120904 -0.03125,0.18164 l 0.02344,-0.002 c -0.0649,0.559077 -0.3045,1.080153 -0.681641,1.482422 -0.180208,0.206617 -0.380705,0.395198 -0.619141,0.539062 -0.519695,0.313553 -1.113976,0.404219 -1.689453,0.31836 l 0,13.550781 3,0 0,3 -2.521484,0 -10.472657,0 0,-1.015625 -0.0059,0 0,1.015625 -16.9999999,0 0,-2.0625 0,-0.9375 2.9902344,0 0,-13.525391 c -0.056488,0.0063 -0.1131557,0.01089 -0.1699219,0.01367 -1.3840338,0.03846 -2.5808437,-0.97184 -2.7949218,-2.359375 -0.00424,-0.02403 -0.00815,-0.04812 -0.011719,-0.07226 -0.00527,-0.03636 -0.00982,-0.07283 -0.013672,-0.109375 -0.00164,-0.01149 -0.00356,-0.0217 -0.003906,-0.0332 -0.001466,-0.01756 -0.002768,-0.03514 -0.003906,-0.05273 l 0.001953,0 -0.001953,-0.01172 0.0214844,0.002 c 0.0079,-0.04091 0.00757,-0.08383 0.035156,-0.121093 l 2.78125,-6.0292971 C 3.9230314,7.5782719 4.1031163,7.4986 4.2851562,7.5 Z"
            color="#000" font-family="sans-serif" font-weight="400" overflow="visible" transform="translate(0 1016.362)"
            white-space="normal" />
    </g>
</svg>