<svg xmlns="http://www.w3.org/2000/svg" width="56" height="56" viewBox="0 0 36 36"><g transform="translate(0 -1016.362)"><g fill="#34485c" font-family="sans-serif" font-size="47.202" font-weight="400" letter-spacing="0" transform="translate(307.96 -1288.469)" word-spacing="0"><path fill-rule="evenodd" d="m -282.04883,2313.8965 c -0.55198,-0.072 -1.12742,0.031 -1.63476,0.3223 a 0.50005,0.50005 0 1 0 0.49804,0.8671 c 0.62724,-0.3601 1.41466,-0.255 1.92578,0.2539 0.51113,0.509 0.61205,1.2847 0.25,1.9063 a 0.50063846,0.50063846 0 1 0 0.86524,0.5039 c 0.58816,-1.0098 0.41843,-2.2941 -0.41016,-3.1191 -0.41429,-0.4126 -0.94215,-0.662 -1.49414,-0.7344 z" color="#000" font-size="medium" overflow="visible" white-space="normal" style="line-height:125%;text-indent:0;text-align:start;text-decoration-line:none;text-decoration-style:solid;text-decoration-color:#000;text-transform:none;block-progression:tb;isolation:auto;mix-blend-mode:normal"/><path fill="#fcd062" d="m -299.32039,2319.7546 2.29604,9.6292 11.66075,-0.047 2.88622,-9.592 -16.19505,0"/><path fill="#25b39e" fill-rule="evenodd" d="m -299.17963,2315.85 0.78892,-3.0929 1.2005,-4.7064 8.11368,2.0697 5.40833,1.3795 1.50486,5.3965 -2.56123,2.6337" color="#000" overflow="visible" style="isolation:auto;mix-blend-mode:normal"/><path fill="#f8b84e" d="m -289.36442,2316.4556 a 3.1409838,3.1224282 0 0 1 -3.14098,3.1224 3.1409838,3.1224282 0 0 1 -3.14099,-3.1224 3.1409838,3.1224282 0 0 1 3.14099,-3.1225 3.1409838,3.1224282 0 0 1 3.14098,3.1225 z" color="#000" overflow="visible" style="isolation:auto;mix-blend-mode:normal"/><path fill="#4bbfeb" fill-rule="evenodd" style="isolation:auto;mix-blend-mode:normal" d="m -298.43839,2319.6475 0,-3.1919 0,-4.8571 8.37348,0 5.5815,0 2.79198,4.8571 -1.83081,3.185" color="#000" overflow="visible"/><ellipse cx="2316.398" cy="284.772" fill="#e9eded" fill-rule="evenodd" stroke="#34485c" stroke-linecap="round" stroke-linejoin="round" color="#000" style="isolation:auto;mix-blend-mode:normal" overflow="visible" rx="1.096" ry="1.103" transform="rotate(90)"/><path fill="none" stroke="#34485c" stroke-linecap="round" stroke-linejoin="round" d="m -284.2881,2315.5805 a 2.0932815,2.0815415 0 0 0 0.42938,2.3569 2.0932815,2.0815415 0 0 0 2.37589,0.3946 2.0932815,2.0815415 0 0 0 1.17631,-2.0903 2.0932815,2.0815415 0 0 0 -1.5809,-1.8072" color="#000" overflow="visible" style="isolation:auto;mix-blend-mode:normal"/><path fill-rule="evenodd" d="m -280.64453,2315.9551 0,1 1.74414,0 0,-1 -1.74414,0 z" color="#000" font-size="medium" overflow="visible" white-space="normal" style="line-height:125%;text-indent:0;text-align:start;text-decoration-line:none;text-decoration-style:solid;text-decoration-color:#000;text-transform:none;block-progression:tb;isolation:auto;mix-blend-mode:normal"/><path fill-rule="evenodd" d="m -279.40234,2316.4473 a 0.50005,0.50005 0 0 1 0.50781,-0.4922 c 0.68699,0 1.34738,0.2721 1.83398,0.7558 0.48663,0.4838 0.75979,1.1409 0.75977,1.8262 a 0.50005,0.50005 0 1 1 -1,0 c 10e-6,-0.4189 -0.16604,-0.8201 -0.46484,-1.1172 -0.29879,-0.297 -0.70518,-0.4648 -1.12891,-0.4648 a 0.50005,0.50005 0 0 1 -0.50781,-0.5078 z" color="#000" font-size="medium" overflow="visible" white-space="normal" style="line-height:125%;text-indent:0;text-align:start;text-decoration-line:none;text-decoration-style:solid;text-decoration-color:#000;text-transform:none;block-progression:tb;isolation:auto;mix-blend-mode:normal"/><g font-size="30.901" style="line-height:125%" transform="scale(1.00297 .99704)"><path style="-inkscape-font-specification:'Bebas Neue Bold'" d="M-295.79684 2322.1818c0 1.2599 1.35441 1.43 1.35441 2.3372 0 .3149-.13859.4283-.35908.4283-.22048 0-.35907-.1134-.35907-.4283l0-.315-.65516 0 0 .2709c0 .7055.35278 1.1087 1.03313 1.1087.68036 0 1.03314-.4032 1.03314-1.1087 0-1.2599-1.35442-1.43-1.35442-2.3372 0-.315.12599-.4347.34648-.4347.22049 0 .34648.1197.34648.4347l0 .1827.65516 0 0-.1386c0-.7055-.34648-1.1087-1.02054-1.1087-.67405 0-1.02053.4032-1.02053 1.1087zM-291.8215 2321.1235l-1.01424 0-.70555 4.4097.63626 0 .11969-.8.85045 0 .11969.8.69925 0-.70555-4.4097zm-.54177.7811l.33388 2.2301-.66776 0 .33388-2.2301zM-290.79939 2325.5332l1.83318 0 0-.63-1.14023 0 0-3.7797-.69295 0 0 4.4097zM-287.96556 2321.7534l1.19693 0 0-.6299-1.88988 0 0 4.4097 1.88988 0 0-.63-1.19693 0 0-1.2914.95124 0 0-.6299-.95124 0 0-1.2285z" font-family="Bebas Neue" font-size="6.3" font-weight="700"/></g><path d="m -302.96094,2316.8535 0,1 0.5,0 2.1836,0 2.76757,11.5996 a 0.50005,0.50005 0 0 0 0.48633,0.3828 l 11.66016,0 a 0.50005,0.50005 0 0 0 0.47851,-0.3554 l 2.88672,-9.5918 a 0.50005,0.50005 0 0 0 -0.47851,-0.6446 l -16.19532,0 -0.24414,0 -0.47851,-2.0058 a 0.50005,0.50005 0 0 0 -0.48633,-0.3848 l -2.58008,0 -0.5,0 z m 4.28321,3.3906 0.006,0 15.52149,0 -2.58399,8.5918 -10.89453,0 -2.04882,-8.5918 z" color="#000" font-size="medium" overflow="visible" white-space="normal" style="line-height:125%;text-indent:0;text-align:start;text-decoration-line:none;text-decoration-style:solid;text-decoration-color:#000;text-transform:none;block-progression:tb;isolation:auto;mix-blend-mode:normal"/><path d="m -299.9082,2316.832 a 0.50005,0.50005 0 0 0 -0.45899,0.6231 l 3.82422,15.9922 a 0.50005,0.50005 0 0 0 0.48633,0.3828 l 9.23437,0 a 0.50005,0.50005 0 1 0 0,-1 l -8.83984,0 -3.73242,-15.6074 a 0.50005,0.50005 0 0 0 -0.51367,-0.3907 z" color="#000" font-size="medium" overflow="visible" white-space="normal" style="line-height:125%;text-indent:0;text-align:start;text-decoration-line:none;text-decoration-style:solid;text-decoration-color:#000;text-transform:none;block-progression:tb;isolation:auto;mix-blend-mode:normal"/><ellipse cx="-295.46" cy="2335.329" fill="#f8b84e" stroke="#34485c" rx="2" ry="2.001"/><path fill-rule="evenodd" d="M-293.26758 2321.6426l0 1 10.07031 0 0-1-10.07031 0zM-291.66992 2324.041l0 1 7.99414 0 0-1-7.99414 0zM-290.07031 2326.4395l0 1 5.59375 0 0-1-5.59375 0z" color="#000" font-size="medium" overflow="visible" white-space="normal" style="line-height:125%;text-indent:0;text-align:start;text-decoration-line:none;text-decoration-style:solid;text-decoration-color:#000;text-transform:none;block-progression:tb;isolation:auto;mix-blend-mode:normal"/><ellipse cx="-286.46" cy="2335.329" fill="#f8b84e" stroke="#34485c" rx="2" ry="2.001"/><path fill="#e9eded" fill-rule="evenodd" style="line-height:125%;text-indent:0;text-align:start;text-decoration-line:none;text-decoration-style:solid;text-decoration-color:#000;text-transform:none;block-progression:tb;isolation:auto;mix-blend-mode:normal" d="M 8.7519531,4.1894531 C 8.3142541,4.2118869 7.9421552,4.5166913 7.8339844,4.9414062 L 7.0742188,7.8847656 7.4023437,7.8066406 C 6.8125,7.8945313 6.5547427,8.1840662 6.5546875,8.7363281 l 0,1.2246094 -0.7089844,2.7792965 c -0.020255,0.08177 -0.030099,0.165765 -0.029297,0.25 l -2.2832031,0 -0.5,0 c -0.5522619,5.5e-5 -0.9999448,0.447738 -1,1 l 0,1 c 5.52e-5,0.552262 0.4477381,0.999945 1,1 l 0.5,0 1.3945313,0 2.5839844,10.832032 c 0.008,0.034 0.024656,0.06561 0.035156,0.09961 l 0.7285156,3.048828 c -0.70789,0.6385 -1.2421675,1.472147 -1.2421875,2.498047 -7e-5,1.9207 1.57968,3.5 3.5000002,3.5 1.92034,0 3.50009,-1.5793 3.5,-3.5 0,-0.1894 -0.139752,-0.3192 -0.169922,-0.5 l 2.339844,0 c -0.0299,0.1806 -0.169912,0.3111 -0.169922,0.5 -7e-5,1.9207 1.57968,3.5 3.5,3.5 1.92034,0 3.50009,-1.5793 3.5,-3.5 -10e-6,-1.9206 -1.5778,-3.503906 -3.5,-3.503906 -0.17675,0 -0.216907,0.01548 -0.242187,0.02148 -0.0401,0 -0.07879,-0.01758 -0.119141,-0.01758 l -8.050781,0 -0.238282,-0.996094 9.748047,0 c 0.65537,5e-4 1.243497,-0.433947 1.435547,-1.060547 l 2.886719,-9.58789 c 0.0509,-0.167 -0.07614,-0.305803 -0.08594,-0.470703 0.0954,-0.036 0.197765,0.01961 0.291015,-0.02539 0.60537,-0.289 1.070386,-0.750384 1.416016,-1.271484 l 0.002,0 c 0.0158,-0.024 0.04925,-0.03359 0.06445,-0.05859 0.0189,-0.026 0.04139,-0.05012 0.05859,-0.07813 0.0046,-0.0071 0.0092,-0.01426 0.01367,-0.02148 0.11536,-0.198101 0.118954,-0.215569 0.02148,-0.04297 2e-4,-2e-4 0.0039,-0.01172 0.0039,-0.01172 0.0442,-0.079 0.0781,-0.1666 0.117188,-0.25 l 0.238281,0 0.0059,0 c 0.16273,0 0.314528,0.06297 0.423829,0.171875 0.110979,0.1104 0.169921,0.253603 0.169921,0.408203 l 0,-0.01367 c -0.006,0.4201 0.182805,0.867672 0.484375,1.138672 0.30157,0.271 0.666175,0.382813 1.015625,0.382813 0.34945,0 0.714055,-0.111813 1.015625,-0.382813 0.30051,-0.27 0.486972,-0.715966 0.482422,-1.134766 -0.003,-0.9474 -0.380144,-1.85679 -1.052734,-2.52539 -0.67537,-0.6714 -1.589863,-1.044922 -2.539063,-1.044922 l -0.0059,0 -0.232422,0 c -0.003,-0.01 -0.0038,-0.01153 -0.0078,-0.01953 -0.0454,-0.097 -0.0801,-0.154894 -0.0957,-0.183594 l -0.002,0 c -0.0457,-0.084 -0.100631,-0.183922 -0.175781,-0.294922 -0.065,-0.096 -0.117867,-0.158166 -0.148437,-0.197265 -0.0588,-0.075 -0.126948,-0.158947 -0.210938,-0.248047 0.0699,0.074 0.04913,0.03906 -0.07617,-0.08594 -0.12114,-0.1206 -0.158609,-0.14259 -0.09961,-0.08789 l -0.002,0 c -0.0842,-0.078 -0.16799,-0.147937 -0.25,-0.210937 -0.0602,-0.046 -0.127205,-0.09598 -0.203125,-0.146484 -0.0835,-0.055 -0.170006,-0.10715 -0.259766,-0.15625 -0.0614,-0.034 -0.14266,-0.079 -0.24414,-0.125 l -0.002,0 c -0.11195,-0.051 -0.206213,-0.08398 -0.277343,-0.109375 -0.0483,-0.017 -0.128461,-0.04808 -0.244141,-0.08008 0.0854,0.024 0.03481,-3.44e-4 -0.08789,-0.02734 -0.11111,-0.029 -0.2232,-0.04387 -0.33789,-0.04687 l 0.171875,0.01953 c 0.006,0 -0.069,-0.02487 -0.232422,-0.04687 l -0.002,0 c -0.1064,-0.014 -0.20668,0.01962 -0.3125,0.01563 L 23.289062,8.3691406 C 23.192418,8.0246217 22.919078,7.7579843 22.572266,7.6699219 L 17.166016,6.2910156 9.0507812,4.2207031 C 8.9531139,4.1966116 8.8523708,4.1873933 8.7519531,4.1933594 Z m 0.050781,0.9980469 8.1152349,2.0703125 5.408203,1.3789063 0.683594,2.4511722 c 0.308793,-0.07245 0.625319,-0.0932 0.935546,-0.05274 0.05677,0.0074 0.111807,0.02398 0.167969,0.03516 0.03823,8.6e-4 0.07624,0.0061 0.113281,0.01563 0.02435,0.006 0.04626,0.0168 0.07031,0.02344 0.05966,0.01643 0.117314,0.0379 0.175781,0.05859 0.0683,0.02423 0.135766,0.04857 0.201172,0.07813 0.06007,0.02708 0.117647,0.05808 0.175781,0.08984 0.0644,0.03524 0.126682,0.07296 0.1875,0.113281 0.05006,0.03316 0.09847,0.06859 0.146485,0.105469 0.06296,0.04837 0.123549,0.09859 0.18164,0.152343 0.02386,0.02204 0.05106,0.03943 0.07422,0.0625 0.01966,0.01957 0.03382,0.04242 0.05273,0.0625 0.05405,0.05737 0.103742,0.117648 0.152343,0.179688 0.03692,0.04721 0.07417,0.09333 0.107422,0.142578 0.0464,0.06847 0.08722,0.140052 0.126953,0.212891 0.02396,0.04412 0.04906,0.08757 0.07031,0.132812 0.03916,0.08299 0.07132,0.168466 0.101562,0.255859 0.01441,0.04183 0.03075,0.08256 0.04297,0.125 0.02004,0.06938 0.03461,0.14135 0.04883,0.212891 l 0.951172,0 0.0059,0 c 0.68699,0 1.347385,0.270206 1.833985,0.753906 0.48663,0.4838 0.759785,1.140872 0.759765,1.826172 0.0096,0.676161 -1.009563,0.676161 -1,0 10e-6,-0.4189 -0.166043,-0.820087 -0.464843,-1.117187 -0.29879,-0.297 -0.705177,-0.462891 -1.128907,-0.462891 l -0.0059,0 -0.945312,0 c -0.0013,0.0064 -0.0026,0.01309 -0.0039,0.01953 -0.01485,0.07134 -0.0398,0.139477 -0.06055,0.208985 -0.01746,0.05912 -0.0289,0.119582 -0.05078,0.177734 -0.0462,0.122121 -0.102082,0.239941 -0.166015,0.353516 -8.59e-4,0.0015 -0.003,0.0024 -0.0039,0.0039 -0.0056,0.01 -0.0079,0.0213 -0.01367,0.03125 -0.01548,0.02494 -0.03313,0.04847 -0.05273,0.07031 -0.255211,0.405748 -0.617869,0.746905 -1.070313,0.962891 -0.588841,0.281105 -1.24714,0.318495 -1.847656,0.144531 l -0.179687,0.314453 0.818359,0 c 0.336326,-2.61e-4 0.577006,0.324903 0.478516,0.646485 l -2.886719,9.591797 c -0.06443,0.210228 -0.258635,0.353699 -0.478516,0.353515 l -11.0156249,0 0.7167969,2.996094 0.164063,0 c 0.01266,-1.92e-4 0.0244,-0.0039 0.03711,-0.0039 0.01271,0 0.02445,0.0037 0.03711,0.0039 l 8.601563,0 c 0.04822,-3.98e-4 0.09624,0.0062 0.142578,0.01953 0.07329,-0.0065 0.143837,-0.02344 0.21875,-0.02344 1.37491,0 2.49999,1.128706 2.5,2.503906 6e-5,1.3752 -1.12504,2.5 -2.5,2.5 -1.37495,0 -2.50005,-1.1248 -2.5,-2.5 8e-6,-0.563742 0.195833,-1.080255 0.513672,-1.5 l -5.029297,0 c 0.317965,0.419793 0.515621,0.936134 0.515625,1.5 6e-5,1.3752 -1.12504,2.5 -2.5,2.5 -1.3749501,0 -2.5000502,-1.1248 -2.5000002,-2.5 C 8.033217,31.513061 8.5820437,30.686573 9.375,30.265625 L 8.5195312,26.689453 c -0.015203,-0.03187 -0.026987,-0.06526 -0.035156,-0.09961 l -2.7675781,-11.59961 -2.1835938,0 -0.5,0 0,-1 0.5,0 2.4355469,0 c 0.038067,-0.01181 0.077408,-0.01902 0.1171875,-0.02148 0.2441695,-0.0123 0.4614376,0.153744 0.5136719,0.392578 l 0.4824218,2.019531 0.2402344,0 0.2324219,0 0,-2.787109 0,-0.417969 -0.7402344,-0.1875 0.7402344,-2.902343 0,-1.3496099 0.34375,0 z m 15.0117189,6.837891 c -0.13412,-0.01775 -0.270964,-0.005 -0.40625,0.01172 l 0.894531,1.556641 -0.898437,1.560547 c 0.298453,0.03813 0.607645,0.0012 0.892578,-0.134766 0.300127,-0.143303 0.535517,-0.371758 0.691406,-0.644531 0.08503,-0.148242 0.142419,-0.307017 0.175781,-0.466797 0.01515,-0.07468 0.0075,-0.153283 0.01172,-0.230469 0.005,-0.08837 0.01977,-0.176107 0.0098,-0.263672 -0.0092,-0.08006 -0.03985,-0.152412 -0.06055,-0.228515 -0.02309,-0.08475 -0.03872,-0.171479 -0.07617,-0.251953 -0.02632,-0.05699 -0.06688,-0.105059 -0.09961,-0.158203 -0.05588,-0.09021 -0.112174,-0.180079 -0.1875,-0.259766 -0.04395,-0.04656 -0.097,-0.08396 -0.146485,-0.125 -0.08012,-0.06619 -0.162667,-0.129217 -0.251953,-0.177734 -0.06344,-0.03432 -0.132474,-0.05819 -0.201172,-0.08399 -0.114143,-0.04286 -0.227434,-0.08761 -0.347656,-0.103515 z m -4.28125,18.939453 c -0.83422,0 -1.49999,0.668906 -1.5,1.503906 -3e-5,0.835 0.66575,1.5 1.5,1.5 0.83426,0 1.50004,-0.665 1.5,-1.5 -10e-6,-0.835 -0.66577,-1.503906 -1.5,-1.503906 z m -9.037109,0.0039 c -0.816351,0.01989 -1.4628813,0.677716 -1.4628912,1.5 -3e-5,0.835 0.6657501,1.5 1.5000002,1.5 0.83426,0 1.50004,-0.665 1.5,-1.5 -10e-6,-0.822203 -0.646644,-1.479984 -1.462891,-1.5 z m 0.02344,0.996094 0.02539,0 c 0.29243,0.01 0.488281,0.2022 0.488281,0.5 2e-5,0.3035 -0.19715,0.5 -0.5,0.5 -0.30283,0 -0.50001,-0.1965 -0.5,-0.5 10e-6,-0.2981 0.193858,-0.4928 0.486328,-0.5 z m 9.013672,0 c 0.29968,0 0.5,0.200506 0.5,0.503906 2e-5,0.3035 -0.19715,0.5 -0.5,0.5 -0.30283,0 -0.50001,-0.1965 -0.5,-0.5 10e-6,-0.3034 0.20034,-0.503906 0.5,-0.503906 z" color="#000" font-size="medium" overflow="visible" transform="translate(-305.994 2302.862)" white-space="normal"/></g></g></svg>