<svg xmlns="http://www.w3.org/2000/svg" width="56" height="56" viewBox="0 0 36 36"><g transform="translate(0 -1016.362)"><g fill="#34485c" font-family="sans-serif" font-size="47.202" font-weight="400" letter-spacing="0" transform="translate(307.994 -1287.559)" word-spacing="0"><path fill="#25b39e" d="m 2154.6979,-891.49866 19.0588,0 c 0.7821,0 1.4118,0.62965 1.4118,1.41178 l 0,9.17645 c 0,0.78212 -0.6297,1.41177 -1.4118,1.41177 l -19.0588,0 c -0.7821,0 -1.4118,-0.62965 -1.4118,-1.41177 l 0,-9.17645 c 0,-0.78213 0.6297,-1.41178 1.4118,-1.41178 z" transform="scale(1 -1) rotate(-75)"/><path fill="#f8b84e" d="m -301.53297,2313.6953 a 2.1176512,2.1176512 0 0 0 1.4974,-2.5936 l 4.7728,-1.2788 a 2.1176512,2.1176512 0 0 0 2.59358,1.4974 l 3.83661,14.3184 a 2.1176512,2.1176512 0 0 0 -1.4974,2.5936 l -4.77281,1.2788 a 2.1176512,2.1176512 0 0 0 -2.59357,-1.4974 l -3.83661,-14.3184 z"/><path fill="#25b39e" d="M-297.83372 2313.069c-.12048-.4494.15468-.9231.60402-1.0435.44935-.1204.92263.1528 1.04297.6021.12031.4493-.15239.9245-.60166 1.0449-.44925.1203-.9249-.1543-1.04533-.6035zm.68106-.1825c.0195.073.10905.1244.18178.1049.0727-.019.12259-.1085.10309-.1813-.0195-.073-.10669-.123-.17942-.1036-.0727.02-.12494.1072-.10545.18zM-294.17992 2326.7051c-.12035-.4493.15477-.9231.60402-1.0435.44926-.1203.92251.1529 1.04297.6022.12047.4493-.15231.9244-.60166 1.0448-.44933.1204-.925-.1541-1.04533-.6035zm.68155-.1806c.0195.073.10857.1225.18129.1031.0727-.019.12306-.1067.10358-.1795-.0195-.073-.10716-.1249-.1799-.1054-.0727.019-.12448.109-.10497.1818z" color="#000" font-size="medium" overflow="visible" white-space="normal" style="line-height:125%;text-indent:0;text-align:start;text-decoration-line:none;text-decoration-style:solid;text-decoration-color:#000;text-transform:none;block-progression:tb;isolation:auto;mix-blend-mode:normal"/><path fill="#25b39e" fill-rule="evenodd" d="m -298.36005,2318.6942 0.68183,-0.1826 0.18769,0.7004 c 0.22058,0.8233 0.80557,0.9945 1.32001,0.8567 0.51444,-0.1379 0.93406,-0.5783 0.71348,-1.4015 l -0.1877,-0.7005 0.68183,-0.1827 0.18769,0.7005 c 0.30489,1.1378 -0.36979,2.0402 -1.2126,2.266 -0.84288,0.2259 -1.87966,-0.2179 -2.18454,-1.3558 l -0.18769,-0.7005 z" color="#000" font-size="medium" letter-spacing="normal" overflow="visible" white-space="normal" word-spacing="normal" style="line-height:normal;text-indent:0;text-align:start;text-decoration-line:none;text-decoration-style:solid;text-decoration-color:#000;text-transform:none;block-progression:tb;isolation:auto;mix-blend-mode:normal"/><path fill="#25b39e" fill-rule="evenodd" style="line-height:normal;text-indent:0;text-align:start;text-decoration-line:none;text-decoration-style:solid;text-decoration-color:#000;text-transform:none;block-progression:tb;isolation:auto;mix-blend-mode:normal" d="M-296.99807 2318.3461l.68183-.1827.90782 3.388-.68182.1827-.90783-3.388zM-298.36173 2318.7114l.68183-.1826.90783 3.388-.68183.1827-.90783-3.3881zM-295.51894 2318.4468l.35762-.6097 2.86047 1.6786-.35626.6093-2.86183-1.6782z" color="#000" font-size="medium" letter-spacing="normal" overflow="visible" white-space="normal" word-spacing="normal"/><path fill="#25b39e" d="m 2305.0685,-330.30823 19.0588,0 c 0.7821,0 1.4118,0.62965 1.4118,1.41178 l 0,9.17645 c 0,0.78212 -0.6297,1.41177 -1.4118,1.41177 l -19.0588,0 c -0.7821,0 -1.4118,-0.62965 -1.4118,-1.41177 l 0,-9.17645 c 0,-0.78213 0.6297,-1.41178 1.4118,-1.41178 z" transform="rotate(105)"/><path fill="#f8b84e" d="m -279.45413,2313.6953 a 2.1176512,2.1176512 0 0 1 -1.4974,-2.5936 l -4.7728,-1.2788 a 2.1176512,2.1176512 0 0 1 -2.59358,1.4974 l -3.83661,14.3184 a 2.1176512,2.1176512 0 0 1 1.4974,2.5936 l 4.77281,1.2788 a 2.1176512,2.1176512 0 0 1 2.59357,-1.4974 l 3.83661,-14.3184 z"/><path fill="#25b39e" d="M-283.15257 2313.0698c.12048-.4494-.15416-.9251-.60351-1.0455-.44934-.1204-.92503.1543-1.04536.6037-.12033.4492.15428.9249.60353 1.0453.44926.1204.92491-.1543 1.04534-.6035zm-.68294-.183c-.0195.073-.10665.123-.17939.1035-.0727-.019-.1231-.1066-.1036-.1794.0195-.073.10668-.123.17941-.1035.0727.019.12306.1066.10358.1794zM-286.80635 2326.7058c.12033-.4492-.15479-.923-.60405-1.0434-.44925-.1203-.92439.1524-1.04481.6016-.12048.4494.15416.925.6035 1.0454.44935.1204.92504-.1542 1.04536-.6036zm-.68294-.183c-.0195.073-.1072.1251-.17993.1056-.0727-.019-.12253-.1086-.10305-.1814.0195-.073.10664-.123.17938-.1035.0727.019.1231.1066.1036.1793z" color="#000" font-size="medium" overflow="visible" white-space="normal" style="line-height:125%;text-indent:0;text-align:start;text-decoration-line:none;text-decoration-style:solid;text-decoration-color:#000;text-transform:none;block-progression:tb;isolation:auto;mix-blend-mode:normal"/><path fill="#25b39e" fill-rule="evenodd" style="line-height:normal;text-indent:0;text-align:start;text-decoration-line:none;text-decoration-style:solid;text-decoration-color:#000;text-transform:none;block-progression:tb;isolation:auto;mix-blend-mode:normal" d="m -282.62705,2318.6942 -0.68183,-0.1826 -0.18769,0.7004 c -0.22058,0.8233 -0.80557,0.9945 -1.32001,0.8567 -0.51444,-0.1379 -0.93406,-0.5783 -0.71348,-1.4015 l 0.1877,-0.7005 -0.68183,-0.1827 -0.18769,0.7005 c -0.30489,1.1378 0.36979,2.0402 1.2126,2.266 0.84288,0.2259 1.87966,-0.2179 2.18454,-1.3558 l 0.18769,-0.7005 z" color="#000" font-size="medium" letter-spacing="normal" overflow="visible" white-space="normal" word-spacing="normal"/><path fill="#25b39e" fill-rule="evenodd" d="M-283.98903 2318.3461l-.68183-.1827-.90782 3.388.68182.1827.90783-3.388zM-282.62537 2318.7114l-.68183-.1826-.90783 3.388.68183.1827.90783-3.3881zM-285.46816 2318.4468l-.35762-.6097-2.86047 1.6786.35626.6093 2.86183-1.6782z" color="#000" font-size="medium" letter-spacing="normal" overflow="visible" white-space="normal" word-spacing="normal" style="line-height:normal;text-indent:0;text-align:start;text-decoration-line:none;text-decoration-style:solid;text-decoration-color:#000;text-transform:none;block-progression:tb;isolation:auto;mix-blend-mode:normal"/><path fill="#25b39e" d="m 2308.3329,284.4935 19.0588,0 c 0.7821,0 1.4118,0.62965 1.4118,1.41178 l 0,9.17645 c 0,0.78212 -0.6297,1.41177 -1.4118,1.41177 l -19.0588,0 c -0.7821,0 -1.4118,-0.62965 -1.4118,-1.41177 l 0,-9.17645 c 0,-0.78213 0.6297,-1.41178 1.4118,-1.41178 z" transform="rotate(90)"/><path fill="#f8b84e" d="m -285.90529,2310.4505 a 2.1176512,2.1176512 0 0 1 -2.11764,-2.1176 l -4.94118,0 a 2.1176512,2.1176512 0 0 1 -2.11764,2.1176 l 0,14.8235 a 2.1176512,2.1176512 0 0 1 2.11764,2.1177 l 4.94118,0 a 2.1176512,2.1176512 0 0 1 2.11764,-2.1177 l 0,-14.8235 z"/><path fill="#25b39e" d="M-289.64062 2310.8027c.00007-.4652-.38832-.8515-.85352-.8515-.4652 0-.85164.3863-.85156.8515.00005.4651.38645.8535.85156.8535.46511 0 .85346-.3884.85352-.8535zm-.70508 0c.00001.075-.0731.1485-.14844.1485-.0753 0-.1465-.073-.14648-.1485 0-.075.0712-.1464.14648-.1465.0753.0001.14843.071.14844.1465zM-289.64062 2324.9219c-.00006-.4651-.38841-.8535-.85352-.8535-.46511 0-.85151.3884-.85156.8535-.00008.4652.38636.8515.85156.8515.4652 0 .85359-.3863.85352-.8515zm-.70508 0c-.00001.075-.0731.1465-.14844.1465-.0753 0-.14648-.071-.14648-.1465-.00002-.075.0712-.1485.14648-.1485.0753 0 .14845.073.14844.1485z" color="#000" font-size="medium" overflow="visible" white-space="normal" style="line-height:125%;text-indent:0;text-align:start;text-decoration-line:none;text-decoration-style:solid;text-decoration-color:#000;text-transform:none;block-progression:tb;isolation:auto;mix-blend-mode:normal"/><path fill="#25b39e" fill-rule="evenodd" d="m -287.67628,2316.1003 -0.70588,0 0,0.7252 c 0,0.8523 -0.52073,1.1691 -1.05331,1.1691 -0.53259,0 -1.05191,-0.3168 -1.05191,-1.1691 l 0,-0.7252 -0.70588,0 0,0.7252 c 0,1.178 0.88524,1.875 1.75779,1.875 0.87261,0 1.75919,-0.697 1.75919,-1.875 l 0,-0.7252 z" color="#000" font-size="medium" letter-spacing="normal" overflow="visible" white-space="normal" word-spacing="normal" style="line-height:normal;text-indent:0;text-align:start;text-decoration-line:none;text-decoration-style:solid;text-decoration-color:#000;text-transform:none;block-progression:tb;isolation:auto;mix-blend-mode:normal"/><path fill="#25b39e" fill-rule="evenodd" style="line-height:normal;text-indent:0;text-align:start;text-decoration-line:none;text-decoration-style:solid;text-decoration-color:#000;text-transform:none;block-progression:tb;isolation:auto;mix-blend-mode:normal" d="M-289.08197 2316.1165l-.70588 0 0 3.5076.70588 0 0-3.5076zM-287.67021 2316.1165l-.70588 0 0 3.5076.70588 0 0-3.5076zM-290.48463 2316.5966l-.50322-.4963-2.32856 2.3617.50181.4963 2.32997-2.3617z" color="#000" font-size="medium" letter-spacing="normal" overflow="visible" white-space="normal" word-spacing="normal"/><path fill="#f05542" d="m -302.02925,2320.8164 23.2845,0 c 0.97015,0 1.75118,0.7633 1.75118,1.7113 l 0,13.6232 c 0,0.948 -0.78103,1.7113 -1.75118,1.7113 l -23.2845,0 c -0.97015,0 -1.75118,-0.7633 -1.75118,-1.7113 l 0,-13.6232 c 0,-0.948 0.78103,-1.7113 1.75118,-1.7113 z"/><path fill="#f17f53" fill-rule="evenodd" d="m -276.99355,2326.8185 -9.81933,0 -1.18067,1.1576 0,1.1575 0,2.5252 1.18067,1.1576 9.81933,0 z"/><path fill="#f05542" d="m -284.13393,2329.8862 a 0.92981744,0.93009901 0 0 1 -0.92982,0.9301 0.92981744,0.93009901 0 0 1 -0.92982,-0.9301 0.92981744,0.93009901 0 0 1 0.92982,-0.9301 0.92981744,0.93009901 0 0 1 0.92982,0.9301 z"/><path fill="#e9eded" style="line-height:125%;text-indent:0;text-align:start;text-decoration-line:none;text-decoration-style:solid;text-decoration-color:#000;text-transform:none;block-progression:tb;isolation:auto;mix-blend-mode:normal" d="M 10.912109,3.0585938 C 9.5929794,3.0585938 8.5,4.1516031 8.5,5.4707031 l 0,-0.4101562 -5.2128906,1.3964843 c -1.27258,0.3419 -2.0461581,1.6820782 -1.7050782,2.9550782 l 2.0566407,7.6738286 c -1.32651,0.181199 -2.4257813,1.208278 -2.4257813,2.580078 l 0,13.623046 C 1.2128906,34.786863 2.4704237,36 3.9648438,36 L 27.248047,36 C 28.742467,36 30,34.786863 30,33.289062 l 0,-3.335937 0,-5.996094 0,-4.291015 c 0,-1.4464 -1.191691,-2.578803 -2.619141,-2.658204 l 2.03711,-7.5957026 c 0.3411,-1.273 -0.432498,-2.6131781 -1.705078,-2.9550782 l -0.002,0 L 22.5,5.0605469 l 0,0.4101562 c 0,-1.3191 -1.092979,-2.4121093 -2.412109,-2.4121093 l -9.175782,0 z m 0,1 9.175782,0 C 20.870021,4.0585937 21.5,4.6886031 21.5,5.4707031 l 0,0.3574219 5.953125,1.5957031 c 0.75548,0.2024 1.200477,0.9730155 0.998047,1.7285157 l -2.359375,8.8007812 1.15625,0 c 0.97015,0 1.751953,0.764891 1.751953,1.712891 l 0,4.291015 0,5.996094 0,3.335937 C 29,34.237063 28.218197,35 27.248047,35 L 3.9648438,35 c -0.97015,0 -1.7519532,-0.762937 -1.7519532,-1.710938 l 0,-13.623046 c 0,-0.948 0.7818031,-1.712891 1.7519532,-1.712891 l 0.9433593,0 -2.359375,-8.8007812 C 2.3464081,8.3968436 2.791395,7.6262281 3.546875,7.4238281 L 9.5,5.828125 9.5,5.4707031 c 0,-0.7821 0.629989,-1.4121093 1.412109,-1.4121093 z" color="#000" font-size="medium" overflow="visible" transform="translate(-305.994 2302.862)" white-space="normal"/></g></g></svg>